<?xml version="1.0" encoding="utf-8"?>
<!-- Generator: Adobe Illustrator 21.0.2, SVG Export Plug-In . SVG Version: 6.00 Build 0)  -->
<svg version="1.1" id="Layer_1" xmlns="http://www.w3.org/2000/svg" xmlns:xlink="http://www.w3.org/1999/xlink" x="0px" y="0px"
	 viewBox="0 0 20 20" style="enable-background:new 0 0 20 20;" xml:space="preserve">
<style type="text/css">
	.st0{fill:#FFFFFF;stroke:#000000;stroke-miterlimit:10;}
</style>
<title>droplets</title>
<desc>Created with Sketch.</desc>
<g id="Symbols">
	<g id="droplets">
		<g id="drops" transform="translate(1.500000, 2.000000)">
			<path id="Stroke-1" class="st0" d="M15.1,13.1c0,2.1-1.7,3.9-3.8,3.9c-2.1,0-3.8-1.7-3.8-3.9V3.8l6.4,6.5
				C14.6,11,15.1,12,15.1,13.1z"/>
			<path id="Stroke-3" class="st0" d="M5.1,6.3C5.1,7.8,4,9,2.6,9C1.2,9,0,7.8,0,6.3V0l4.3,4.4C4.8,4.9,5.1,5.6,5.1,6.3z"/>
			<path id="Stroke-5" class="st0" d="M17,5.8C17,7,16,8,14.8,8c-1.2,0-2.2-1-2.2-2.2V0.5l3.7,3.7C16.7,4.6,17,5.2,17,5.8z"/>
		</g>
	</g>
</g>
</svg>
